<?xml version="1.0" encoding="utf-8"?>
<!-- Generator: Adobe Illustrator 19.0.0, SVG Export Plug-In . SVG Version: 6.00 Build 0)  -->
<svg version="1.1" id="Layer_1" xmlns="http://www.w3.org/2000/svg" xmlns:xlink="http://www.w3.org/1999/xlink" x="0px" y="0px"
	 viewBox="0 0 742.5 418.5" style="enable-background:new 0 0 742.5 418.5;" xml:space="preserve">
<style type="text/css">
	.st0{fill:#454545;}
	.st1{fill:none;stroke:#454545;stroke-width:1.5;stroke-linecap:round;stroke-miterlimit:1.5;}
	.st2{fill:none;}
	.st3{fill:#D6D6D6;}
	.st4{fill:#FFFFFF;}
	.st5{fill-rule:evenodd;clip-rule:evenodd;fill:#454545;}
</style>
<polygon class="st0" points="39.7,277.9 0,277.9 0,292.1 13,292.1 13,339.3 26.6,339.3 26.6,292.1 39.7,292.1 "/>
<path class="st0" d="M68.4,292.1h7.8c4.5,0,7.6,2.5,7.6,7c0,5.3-3.7,7-7.6,7h-7.8V292.1z M100.9,339.3L89,315.4
	c5.3-3.3,8.6-8.8,8.6-16.2c0-12.3-7.2-21.2-21.4-21.2H54.8v61.4h13.6v-20.5H77l9.4,20.5H100.9z"/>
<path class="st0" d="M147.6,258.1c-3.4,0-6.2,3.1-6.2,6.8s2.8,6.8,6.2,6.8c3.5,0,6.3-3.1,6.3-6.8S151.1,258.1,147.6,258.1z
	 M129.4,258.1c-3.4,0-6.2,3.1-6.2,6.8s2.8,6.8,6.2,6.8c3.4,0,6.2-3.1,6.2-6.8S132.8,258.1,129.4,258.1z M131.2,316.5l7.3-25.5
	l7.3,25.5H131.2z M152.3,339.3h14.2l-20-61.4h-16.1l-20,61.4h14.3l3.3-11.4h21.1L152.3,339.3z"/>
<polygon class="st0" points="212.7,277.9 198.9,326.3 185.1,277.9 170.9,277.9 190.8,339.3 207,339.3 226.9,277.9 "/>
<polygon class="st0" points="254.1,325.2 254.1,315 272.2,315 272.2,301.6 254.1,301.6 254.1,292.1 274.7,292.1 274.7,277.9 
	240.5,277.9 240.5,339.3 275.4,339.3 275.4,325.2 "/>
<path class="st0" d="M305,292.1h7.8c4.5,0,7.6,2.5,7.6,7c0,5.3-3.7,7-7.6,7H305V292.1z M337.4,339.3l-11.8-23.9
	c5.3-3.3,8.6-8.8,8.6-16.2c0-12.3-7.2-21.2-21.4-21.2h-21.4v61.4H305v-20.5h8.6l9.4,20.5H337.4z"/>
<polygon class="st0" points="398.1,339.3 377.5,307.6 396.8,277.9 381.6,277.9 364.5,305.2 364.5,277.9 350.9,277.9 350.9,339.3 
	364.5,339.3 364.5,311.2 382.2,339.3 "/>
<path class="st0" d="M433.4,302.8c-4.3-1.3-10.9-2.5-10.9-7.3c0-3.5,2.6-5.9,6.6-5.9c4.9,0,7.2,3,7.9,6l12.6-3.4
	c-2.1-9.7-10.3-15.3-19.8-15.3c-11.6,0-20.4,7-20.4,18.8c0,10.3,5,16,16.1,18.9c6.3,1.8,11.8,2.5,11.8,7c0,4-3.5,6.1-8.2,6.1
	c-6,0-9-3.8-9.7-7.3l-12.6,4.3c2.5,11.4,12.2,15.8,22.4,15.8c13.9,0,21.8-9.1,21.8-19.1C450.9,311.8,446.9,307,433.4,302.8z"/>
<polygon class="st0" points="502.5,277.9 462.9,277.9 462.9,292.1 475.9,292.1 475.9,339.3 489.5,339.3 489.5,292.1 502.5,292.1 "/>
<path class="st0" d="M530.1,316.5l7.3-25.5l7.3,25.5H530.1z M551.2,339.3h14.2l-20-61.4h-16.1l-20,61.4h14.3l3.3-11.4H548
	L551.2,339.3z"/>
<path class="st0" d="M598.5,325.2h-5.8v-33.1h5.8c9.2,0,16,5.6,16,16.5C614.5,319.5,607.6,325.2,598.5,325.2z M598.5,277.9H579v61.4
	h19.5c18.6,0,29.6-11.9,29.6-30.7C628.1,289.9,617.1,277.9,598.5,277.9z"/>
<polygon class="st0" points="657.2,325.2 657.2,315 675.3,315 675.3,301.6 657.2,301.6 657.2,292.1 677.9,292.1 677.9,277.9 
	643.6,277.9 643.6,339.3 678.6,339.3 678.6,325.2 "/>
<polygon class="st0" points="728.1,277.9 728.1,313.7 706.4,277.9 694.5,277.9 694.5,339.3 708.2,339.3 708.2,303.5 729.9,339.3 
	741.8,339.3 741.8,277.9 "/>
<rect x="187" y="373.5" class="st0" width="2" height="43.8"/>
<path class="st0" d="M247.3,362.1c-1.1,0-2,0.9-2,2.1c0,1.2,0.9,2.2,2,2.2c1.1,0,1.9-1,1.9-2.2C249.3,363.1,248.4,362.1,247.3,362.1
	z M238.1,362.1c-1.1,0-1.9,0.9-1.9,2.1c0,1.2,0.9,2.2,1.9,2.2c1.1,0,2-1,2-2.2C240.1,363.1,239.1,362.1,238.1,362.1z M242.7,415.9
	c-10.1,0-17.6-9.1-17.6-20.5s7.5-20.5,17.6-20.5c10.1,0,17.6,9.1,17.6,20.5S252.7,415.9,242.7,415.9z M242.7,372.8
	c-11.2,0-19.6,10-19.6,22.7c0,12.7,8.4,22.7,19.6,22.7c11.2,0,19.6-10.1,19.6-22.7C262.3,382.8,253.9,372.8,242.7,372.8z"/>
<path class="st0" d="M286.9,394.4c-5.4-1.8-10.2-3.3-10.2-9.9c0-5.4,4.1-9.5,8.9-9.5c4.3,0,7.6,2.3,8.8,6.5l2-0.5
	c-1.5-5.3-5.5-8.2-10.8-8.2c-5.9,0-10.9,5-10.9,11.7c0,8.3,6.2,10.2,11.6,12c5.2,1.8,9.7,2.7,9.7,9.5c0,5.9-4.1,9.9-10.3,9.9
	c-6.5,0-9.9-4.3-10.7-8l-1.9,0.7c1.2,4.8,5.6,9.6,12.7,9.6c8.8,0,12.4-6.6,12.4-12.1C298.2,397.6,292.2,396.1,286.9,394.4z"/>
<polygon class="st0" points="331.6,373.5 307.8,373.5 307.8,375.8 318.7,375.8 318.7,417.4 320.7,417.4 320.7,375.8 331.6,375.8 "/>
<polygon class="st0" points="347.8,415.2 347.8,395.8 365.4,395.8 365.4,393.6 347.8,393.6 347.8,375.8 366.7,375.8 366.7,373.5 
	345.8,373.5 345.8,417.4 367.2,417.4 367.2,415.2 "/>
<path class="st0" d="M383.5,396.3v-20.5h8.3c8,0,11.7,4.3,11.7,10.2c0,6-3.7,10.3-11.7,10.3H383.5z M407.7,417.4l-11-19.5
	c5.6-1.5,8.7-5.8,8.7-11.8c0-7.6-5-12.5-13.7-12.5h-10.3v43.8h2v-18.9h8.3c1,0,1.9-0.1,2.8-0.2l10.7,19.1H407.7z"/>
<path class="st0" d="M432.8,368c-2.2,0-3.9-1.9-3.9-4.3s1.8-4.3,3.9-4.3c2.1,0,3.9,1.9,3.9,4.3S434.9,368,432.8,368z M432.8,357.2
	c-3.3,0-6,2.9-6,6.5c0,3.6,2.7,6.5,6,6.5c3.2,0,5.9-2.9,5.9-6.5C438.7,360.1,436,357.2,432.8,357.2z M424.3,401.7l8.4-24.9l8.4,24.9
	H424.3z M446.4,417.4h2.3l-14.8-43.8h-2.2l-14.8,43.8h2.2l4.5-13.4h18.3L446.4,417.4z"/>
<polygon class="st0" points="486.2,417.4 465.8,395.2 484.5,373.5 482,373.5 463.2,395.2 463.2,373.5 461.2,373.5 461.2,417.4 
	463.2,417.4 463.2,395.3 483.5,417.4 "/>
<polygon class="st0" points="500.7,415.2 500.7,395.8 518.3,395.8 518.3,393.6 500.7,393.6 500.7,375.8 519.6,375.8 519.6,373.5 
	498.7,373.5 498.7,417.4 520.1,417.4 520.1,415.2 "/>
<path class="st0" d="M536.4,396.3v-20.5h8.3c8,0,11.7,4.3,11.7,10.2c0,6-3.7,10.3-11.7,10.3H536.4z M560.6,417.4l-11-19.5
	c5.6-1.5,8.7-5.8,8.7-11.8c0-7.6-5-12.5-13.7-12.5h-10.3v43.8h2v-18.9h8.3c1,0,1.9-0.1,2.8-0.2l10.7,19.1H560.6z"/>
<line class="st1" x1="573" y1="397.6" x2="656.7" y2="397.6"/>
<line class="st1" x1="87.5" y1="397.6" x2="171.2" y2="397.6"/>
<g>
	<path class="st2" d="M389.1,177.6c0.1-0.2,0.3-0.3,0.4-0.5c0,0,1.4-2,5.5-2.3c5.1-5.2,23-23.5,44.1-45.1
		c-10.4-9.4-35.4-31.2-51.4-49.1c-5.1-5.7-9.3-11-12-15.4c-0.2-0.4-0.4-0.7-0.6-1c-14.3,15.1-33.3,33.8-37.6,38.1
		c-3.3,3.3-15.1,17.2-28.3,31.1c11.9,10.7,32.9,29.6,47.1,45.3c5.1,5.7,9.3,11,12.1,15.4c0.7,1.2,1.3,2.3,1.9,3.4
		C378.9,188.7,386.7,180.7,389.1,177.6z"/>
	<path class="st2" d="M453.1,211.6c-2.1,2.2-6.9,7.2-13,13.5c6.3-4.5,12.1-9.6,17.4-15.3C455.9,210.6,454.4,211.2,453.1,211.6z"/>
	<path class="st0" d="M375.1,64.1c-1.1-2-1.9-3.8-2.4-5.4c-14.4,15.2-34.6,35.2-39.1,39.6c-3.3,3.3-15.2,17.3-28.4,31.3
		c1.2,1.1,2.6,2.3,4.1,3.7c13.2-13.9,24.9-27.8,28.3-31.1C341.8,97.9,360.8,79.1,375.1,64.1z"/>
	<path class="st0" d="M329.1,29.2c0,0,2.7-3,6.5-6.8c-0.1-0.1-0.1-0.1-0.2-0.2C333.5,24.3,331.4,26.7,329.1,29.2z"/>
	<path class="st0" d="M351.6,37.8c-0.3-0.3-0.6-0.6-0.9-0.9c-8,8.4-17,17.9-23.6,24.7C332,56.5,341.8,46.7,351.6,37.8z"/>
	<path class="st0" d="M329.8,53.5c0,0,9.9-7.4,20.2-17.2c-2.7-2.6-5.5-5.3-8.3-8c-12.1,13.6-32.6,36-56,57c0,0,49.7-44.6,52.2-45.4
		c0,0-40.7,37.9-51.9,51.1c-4.8,5.7-7.8,8.5-9.8,10c0.6,0.5,1.1,1.1,1.6,1.6c10.1-11.1,36-39,45.4-45.8c0,0,4.9,2.5-41.5,49.6
		c0.2,0.2,0.4,0.4,0.6,0.6C295.5,95.2,318.6,72.9,329.8,53.5z"/>
	<path class="st0" d="M279.7,74.6c0,0,30.6-26.6,54.3-53.6c-0.4-0.4-0.8-0.8-1.2-1.2c-0.2,0.1-0.5,0.2-0.7,0.2
		C315.9,38.3,293,62.8,279.7,74.6z"/>
	<path class="st0" d="M327.1,61.6c-2.1,2.1-3.3,3.4-3.3,3.4C324.7,64,325.9,62.8,327.1,61.6z"/>
	<path class="st3" d="M337.5,64.9c0,0,6.4-4.6,8.4-8.9s4.3-9.5,9.1-11.7c0.6-0.3,1.3-0.7,2-1.3c-0.7-0.7-1.4-1.3-2.1-2
		c-0.1,0.1-0.2,0.2-0.3,0.2c-10.8,8.7-14.8,12.9-16,14.3c-0.3,0.3-0.4,0.5-0.4,0.5s0.1-0.2,0.4-0.5c1.7-2,8-9.4,14.8-16
		c-0.6-0.6-1.2-1.2-1.8-1.8c-9.7,8.9-19.5,18.7-24.5,23.8c-1.2,1.2-2.3,2.4-3.3,3.4c0,0,1.2-1.3,3.3-3.4
		c6.6-6.8,15.6-16.3,23.6-24.7c-0.2-0.2-0.4-0.4-0.6-0.6c-10.3,9.8-20.2,17.2-20.2,17.2c-11.2,19.4-34.3,41.7-47.5,53.6
		c1.9,1.9,3.7,3.7,5.4,5.4C295.7,102.3,310.4,86.7,337.5,64.9z"/>
	<path class="st3" d="M268,93c14.8-9,42.6-37.5,51.2-47c0.7-0.7,1-1.1,1-1.1c-0.3,0.3-0.6,0.7-1,1.1c-5.8,6.4-34.5,38.1-48.8,49.3
		c2,1.9,4,3.9,5.9,5.8c2-1.5,5-4.3,9.8-10C297.2,77.8,337.9,40,337.9,40c-2.6,0.8-52.2,45.4-52.2,45.4c23.4-21,44-43.4,56-57
		c-2-2-4.1-3.9-6.1-5.9c-3.8,3.9-6.5,6.8-6.5,6.8c2.3-2.6,4.4-4.9,6.3-7c-0.5-0.4-0.9-0.9-1.3-1.3c-23.7,27-54.3,53.6-54.3,53.6
		C293,62.8,315.9,38.3,332.1,20c-31.8,11.6-57.1,36.5-69.2,68C264.6,89.6,266.3,91.3,268,93z"/>
	<path class="st3" d="M372.6,58.7c-0.1-0.3-0.2-0.6-0.3-0.8c-1.2-1.1-3.2-3.1-5.7-5.5c-9.1,8.2-20.1,20-26.6,27.9
		c0,0,6-10.4,24.8-29.6c-1.6-1.6-3.4-3.3-5.3-5.1c-4.8,4.9-9.2,9.8-11.3,11.9c-3.2,3.2-31.3,29.1-40.1,37.3
		c-4.3,4-12.4,12.9-18.3,19.9c0.9,0.9,1.7,1.7,2.5,2.5c8.5-8.3,18.1-19.6,24.1-25.8c7.9-8.1,26.2-26.4,32.7-29.6
		c0,0-21.9,19.5-37.1,39.3c-6.5,8.5-12.2,14.4-17,18.8c2.8,2.8,4.9,5,6.1,6.1c0.8,0.8,2.3,2.1,4.1,3.9c13.2-14,25.1-28,28.4-31.3
		C338,93.8,358.2,73.9,372.6,58.7z"/>
	<path class="st3" d="M323.3,56.9c-9.3,6.8-35.2,34.7-45.4,45.8c1.3,1.3,2.6,2.6,3.8,3.8C328.2,59.5,323.3,56.9,323.3,56.9z"/>
	<path class="st0" d="M319.2,45.9c-8.6,9.5-36.3,38.1-51.2,47c0.8,0.8,1.6,1.5,2.3,2.3C284.6,84,313.4,52.3,319.2,45.9z"/>
	<path class="st0" d="M319.2,45.9c0.4-0.4,0.7-0.8,1-1.1C320.2,44.8,319.8,45.2,319.2,45.9z"/>
	<path class="st0" d="M311.9,100.9C327.1,81.1,349,61.5,349,61.5c-6.4,3.2-24.8,21.5-32.7,29.6c-6,6.2-15.6,17.6-24.1,25.8
		c0.9,0.9,1.8,1.8,2.6,2.7C299.7,115.3,305.4,109.3,311.9,100.9z"/>
	<path class="st0" d="M308.1,94.6c8.8-8.2,36.9-34.1,40.1-37.3c2.1-2.1,6.6-7,11.3-11.9c-0.8-0.8-1.7-1.6-2.5-2.4
		c-0.7,0.5-1.4,1-2,1.3c-4.8,2.2-7.1,7.4-9.1,11.7s-8.4,8.9-8.4,8.9c-27.1,21.8-41.7,37.4-49.7,47.7c0.7,0.7,1.3,1.3,2,2
		C295.7,107.5,303.8,98.6,308.1,94.6z"/>
	<path class="st0" d="M338.6,55.6c-0.3,0.3-0.4,0.5-0.4,0.5S338.3,55.9,338.6,55.6z"/>
	<path class="st0" d="M338.6,55.6c1.2-1.4,5.2-5.6,16-14.3c0.1-0.1,0.2-0.2,0.3-0.2c-0.5-0.5-1-1-1.5-1.5
		C346.6,46.1,340.2,53.6,338.6,55.6z"/>
	<path class="st0" d="M366.6,52.3c-0.6-0.5-1.2-1.1-1.8-1.7C346.1,69.8,340,80.2,340,80.2C346.5,72.3,357.5,60.5,366.6,52.3z"/>
	<path class="st0" d="M452.1,80.3c-14.4-12.3-12.4-13.8-12.9-15.2c-0.6-1.4-5.1-1.1-7.3-2c-2.2-0.9-5.9,1.2-33.4-26.3
		c0,0,9.4,17.5,36.1,29.9c0,0,18.5,16.9,34.4,32.4c0.4-0.5,0.9-0.9,1.3-1.4C463,90.4,456.3,83.9,452.1,80.3z"/>
	<path class="st0" d="M425.8,65.1c0,0,17.3,20.5,37.8,39.3c0.5-0.5,1-1,1.5-1.5C455.9,94.7,443.2,82.6,425.8,65.1z"/>
	<path class="st0" d="M458,80.2c0,0,6.1,6.7,14.1,15.6c0.1-0.1,0.2-0.2,0.3-0.3C467.6,90.5,462.8,85.4,458,80.2z"/>
	<path class="st0" d="M469,74.5c0,0,4.4,5,11.5,12.6c0.1-0.1,0.2-0.2,0.3-0.3C476.2,82.2,472.2,78,469,74.5z"/>
	<path class="st0" d="M386.8,32c7.2,7,13.1,11.6,13.1,11.6s-15.3-15.1-29.3-30.7c-0.8,0-1.5,0-2.3,0C375.9,21.1,383.4,28.7,386.8,32
		z"/>
	<path class="st0" d="M366,22.4c0,0-3-3.2-7.1-7.5L366,22.4z"/>
	<path class="st0" d="M334,20.9c0.4,0.4,0.9,0.9,1.3,1.3c0.1,0.1,0.1,0.1,0.2,0.2c2,2,4.1,3.9,6.1,5.9c2.8,2.7,5.6,5.4,8.3,8
		c0.2,0.2,0.4,0.4,0.6,0.6c0.3,0.3,0.6,0.6,0.9,0.9c0.6,0.6,1.2,1.2,1.8,1.8c0.5,0.5,1,1,1.5,1.5c0.7,0.7,1.4,1.4,2.1,2
		c0.9,0.8,1.7,1.6,2.5,2.4c1.9,1.9,3.7,3.6,5.3,5.1c0.6,0.6,1.2,1.2,1.8,1.7c2.6,2.5,4.6,4.4,5.7,5.5c0.1,0.3,0.2,0.6,0.3,0.8
		c0.5,1.6,1.3,3.5,2.4,5.4c0.2,0.3,0.4,0.7,0.6,1c2.7,4.5,6.9,9.8,12,15.4c16.1,17.9,41.1,39.8,51.4,49.1c1.3-1.3,2.5-2.6,3.8-3.9
		c-15.6-14.1-63.9-56-65.5-70.7c0,0-20.4-19.6-38.7-37.3c-2,0.6-3.9,1.2-5.9,1.9C333.2,20.1,333.6,20.5,334,20.9z"/>
	<path class="st0" d="M358.8,15l-1.1-1.2c0,0,0,0,0,0C358.1,14.2,358.5,14.6,358.8,15z"/>
	<path class="st0" d="M371.7,34.7c0,0-10.2-11.1-19.3-20.2c-0.6,0.1-1.2,0.2-1.8,0.3C359.7,22.9,369.3,32.4,371.7,34.7z"/>
	<path class="st4" d="M475.5,92.2c1.7-1.7,3.3-3.4,5-5.1c-7.1-7.6-11.5-12.6-11.5-12.6c3.2,3.5,7.2,7.8,11.8,12.3
		c0,0,0.1-0.1,0.1-0.1c-10.2-25.7-29.3-47-53.5-60c7.1,9,13.1,19.9,21.2,33.4C453.3,68.3,464.4,80.8,475.5,92.2z"/>
	<path class="st4" d="M410.3,19.3c-5.6-1.9-11.5-3.5-17.5-4.6c15.8,14,30.4,26.8,31.2,27.1C432,45.2,420.3,30.6,410.3,19.3z"/>
	<path class="st4" d="M418.2,77.4c8,10.5,26.4,25.8,35.3,34.5c0.5,0.5,1,1,1.5,1.5c0.7-0.7,1.4-1.4,2.1-2.2
		c-3.1-3.3-5.8-6.2-7.6-8.2C440.5,93.5,410.1,67,418.2,77.4z"/>
	<path class="st4" d="M377.4,55.1c1.6,14.7,49.9,56.6,65.5,70.7c3.4-3.5,6.8-7,10.3-10.6c-3.3-2.9-6.7-5.7-10.1-8.4
		C421.7,90,415,78.4,409.8,72c-5.2-6.4-15.9-18.5-30.3-30.5c0,0,25.8,21.5,32.9,29c0,0,13.3,2.5,46.8,38.5c1.5-1.5,3-3.1,4.5-4.6
		c-20.5-18.9-37.8-39.3-37.8-39.3c17.4,17.5,30.1,29.6,39.3,37.8c1.3-1.3,2.5-2.6,3.8-3.9c-15.9-15.5-34.4-32.4-34.4-32.4
		c-26.7-12.4-36.1-29.9-36.1-29.9c27.5,27.5,31.2,25.4,33.4,26.3c2.2,0.9,6.7,0.6,7.3,2c0.6,1.4-1.4,2.9,12.9,15.2
		c4.3,3.6,10.9,10.1,18.2,17.4c0.6-0.6,1.2-1.3,1.9-1.9c-8-8.8-14.1-15.6-14.1-15.6c4.8,5.3,9.6,10.4,14.3,15.3
		c0.9-0.9,1.7-1.8,2.6-2.6c-13.7-13.2-28.1-27.9-31.6-34.4c-4.6-8.4-9.8-19-22.5-35c-2.5-1.2-5.1-2.2-7.7-3.2
		c14.4,16.4,33.5,39.6,20.7,31.5c-8.5-5.3-26.9-21.7-44.1-37.6c-2.2-0.3-4.5-0.6-6.8-0.8c14.3,13.4,34.8,31.3,52.6,42.3
		c0,0,8.3,22.4-54.2-42.5c-3-0.2-6.1-0.4-9.1-0.4h0c-0.5,0-1.1,0-1.6,0c14.1,15.6,29.3,30.7,29.3,30.7S393.9,39,386.8,32
		c-3.4-3.3-10.9-10.9-18.5-19c-3.6,0.1-7.1,0.4-10.5,0.8l1.1,1.2c4.1,4.2,7.1,7.5,7.1,7.5l-7.1-7.5c-0.4-0.4-0.8-0.8-1.1-1.2
		c-1.8,0.2-3.5,0.5-5.3,0.8c9.1,9,19.3,20.2,19.3,20.2c-2.4-2.4-12-11.8-21-19.9c-4.1,0.8-8.1,1.7-12,2.9
		C357,35.5,377.4,55.1,377.4,55.1z"/>
	<path class="st0" d="M474.9,92.8c0.2-0.2,0.4-0.4,0.6-0.6c-11.1-11.5-22.2-24-27-32.1c-8-13.5-14.1-24.4-21.2-33.4
		c-2.1-1.1-4.3-2.2-6.5-3.2c12.7,15.9,17.9,26.5,22.5,35C446.8,65,461.3,79.7,474.9,92.8z"/>
	<path class="st0" d="M413.1,20.3c-0.9-0.3-1.8-0.7-2.8-1C420.3,30.6,432,45.2,424,41.9c-0.7-0.3-15.4-13.1-31.2-27.1
		c-1.1-0.2-2.1-0.4-3.2-0.5c17.2,15.9,35.7,32.4,44.1,37.6C446.6,59.9,427.4,36.7,413.1,20.3z"/>
	<path class="st0" d="M435.4,55.7c-17.8-11-38.3-29-52.6-42.3c-0.5,0-1.1-0.1-1.6-0.1C443.7,78.2,435.4,55.7,435.4,55.7z"/>
	<path class="st0" d="M453.4,111.9c-8.8-8.6-27.2-24-35.3-34.5c-8-10.5,22.3,16.1,31.3,25.6c1.8,2,4.5,4.8,7.6,8.2
		c0.7-0.7,1.4-1.5,2.1-2.2c-33.4-36.1-46.8-38.5-46.8-38.5c-7.1-7.5-32.9-29-32.9-29c14.3,12,25.1,24.1,30.3,30.5
		c5.2,6.4,11.9,17.9,33.3,34.7c3.4,2.7,6.8,5.5,10.1,8.4c0.6-0.6,1.2-1.2,1.7-1.8C454.4,112.9,453.9,112.4,453.4,111.9z"/>
	<path class="st0" d="M414,224.1l6.8-6.5C420.8,217.6,417.9,220.3,414,224.1z"/>
	<path class="st0" d="M414,224.1l-9.3,8.9c0.1,0.1,0.2,0.2,0.2,0.2C408,230.1,411.2,226.8,414,224.1z"/>
	<path class="st0" d="M429.7,198.6c6.4-6.5,10.7-12,10.7-12S415,212.2,397.5,226c0.5,0.5,1,1,1.6,1.5
		C409.7,218.3,424.8,203.6,429.7,198.6z"/>
	<path class="st0" d="M386,215c0.5,0.5,1.1,1,1.6,1.6c7.1-7.2,13.5-14.3,16.4-19.1C404,197.5,395.8,205.6,386,215z"/>
	<path class="st0" d="M394.5,184.6c0,0-9.3,9.1-19.8,19.5c0.3,0.3,0.5,0.5,0.8,0.8C384.4,196.2,392.8,187.8,394.5,184.6z"/>
	<path class="st0" d="M457.5,209.8c4.3-4.6,8.2-9.5,11.7-14.7c-7.7,6.7-14.4,11.5-18.6,12c0,0-13,13.5-26.8,27.8
		c5.7-2.8,11.2-6.1,16.3-9.8c6.1-6.3,10.9-11.3,13-13.5C454.4,211.2,455.9,210.6,457.5,209.8z"/>
	<path class="st0" d="M432.1,212.3c0,0-16.2,14.8-24.3,23.7c0.4,0.4,0.8,0.8,1.2,1.1C416.8,227.8,429.4,215,432.1,212.3z"/>
	<path class="st0" d="M468.7,123.5c0,0,7.6-6.7,18.1-16.7c-0.1-0.3-0.1-0.5-0.2-0.8C479.9,112.9,473.6,119.1,468.7,123.5z"/>
	<path class="st0" d="M480.5,87.1c-1.6,1.7-3.3,3.4-5,5.1c-0.2,0.2-0.4,0.4-0.6,0.6c-0.8,0.9-1.7,1.8-2.6,2.6
		c-0.1,0.1-0.2,0.2-0.3,0.3c-0.6,0.6-1.2,1.3-1.9,1.9c-0.4,0.5-0.9,0.9-1.3,1.4c-1.3,1.3-2.5,2.6-3.8,3.9c-0.5,0.5-1,1-1.5,1.5
		c-1.5,1.5-3,3.1-4.5,4.6c-0.7,0.7-1.4,1.5-2.1,2.2c-0.7,0.7-1.4,1.4-2.1,2.2c-0.6,0.6-1.2,1.2-1.7,1.8c-3.5,3.6-6.9,7.1-10.3,10.6
		c-1.3,1.3-2.6,2.6-3.8,3.9c-21,21.6-38.9,39.8-44.1,45.1c-4.1,0.4-5.5,2.3-5.5,2.3c-0.2,0.2-0.3,0.3-0.4,0.5
		c-2.4,3.1-10.2,11.1-18.9,19.8c0.7,1.4,1.2,2.7,1.5,3.8c0.2,0.2,0.5,0.5,0.8,0.8c9.4-9.3,18-18.1,20.5-21.4c0,0,1-1,4-0.8
		c0,0,47.3-48.2,85.6-87.9c-0.6-1.7-1.2-3.4-1.9-5.1c0,0-0.1,0.1-0.1,0.1C480.7,86.9,480.6,87,480.5,87.1z"/>
	<path class="st0" d="M460,162.9c0,0,14-11.9,28.9-27.2c0-0.9,0.1-1.8,0.1-2.6C481.9,140.7,472.4,150.5,460,162.9z"/>
	<path class="st0" d="M473.8,133.5c0,0,6.5-5.9,14.8-13.4c0-0.2,0-0.3,0-0.5C483.8,124.2,478.9,128.9,473.8,133.5z"/>
	<path class="st0" d="M473.9,138.9c-11.3,13.1-12.6,11.3-13.9,11.9c-1.3,0.5-1,4.6-1.8,6.6c-0.8,2,1,5.4-24.1,30.5
		c0,0,16-8.7,27.4-33c0,0,14-15.3,27.6-29.3c0-0.8-0.1-1.6-0.1-2.4C482.6,129.5,477,135.2,473.9,138.9z"/>
	<path class="st3" d="M438.8,164.6c4.5-10.6-25.7,16.7-31.1,22.4c-2.7,2.8-16,13.5-27.3,22.6c1.7,1.6,3.6,3.4,5.5,5.3
		c9.8-9.4,18-17.5,18-17.5c-2.9,4.8-9.3,11.9-16.4,19.1c1,0.9,2,1.9,3,2.9C406.9,201.1,438.3,165.7,438.8,164.6z"/>
	<path class="st3" d="M471.2,169.8c4.4-3.4,9.8-8.9,15.1-14.5c0.5-2.3,0.9-4.6,1.3-6.9C477.3,159.4,463.6,175.6,471.2,169.8z"/>
	<path class="st3" d="M469.3,195c6.7-10,11.9-21,15.3-32.9c-8.3,8.2-14.4,12.1-18.4,15.3c-5.8,4.8-16.9,14.6-27.9,27.7
		c0,0,19.7-23.6,26.6-30.1c0,0,1.7-9.1,23.4-31.2c0.3-2.7,0.6-5.4,0.7-8.2C474,151,460,162.9,460,162.9c12.5-12.4,21.9-22.2,29-29.8
		c0-1,0-2.1,0-3.1v0c0-1.4,0-2.9-0.1-4.3c-13.6,14-27.6,29.3-27.6,29.3c-11.4,24.3-27.4,33-27.4,33c25.2-25.2,23.3-28.5,24.1-30.5
		c0.8-2,0.6-6.1,1.8-6.6c1.3-0.5,2.6,1.3,13.9-11.9c3.2-3.7,8.7-9.4,15-15.7c-0.1-1.1-0.1-2.1-0.2-3.1c-8.4,7.5-14.8,13.4-14.8,13.4
		c5.1-4.6,10-9.3,14.8-13.9c-0.1-1.5-0.3-2.9-0.5-4.4c-12.7,13.3-27.8,28.3-34.1,31.8c-12,6.6-28.8,14.4-61.4,47.7
		c0,0,18.7-20.7,27.7-29c9-8.3,20.4-14.6,35.2-23.4c8.2-4.9,21.2-16.7,32.5-27.8c-0.3-2.6-0.8-5.1-1.3-7.6
		c-10.5,10-18.1,16.7-18.1,16.7c4.9-4.4,11.2-10.6,17.9-17.5c-1-4.8-2.3-9.6-3.9-14.2c-38.4,39.7-85.6,87.9-85.6,87.9
		c-3-0.2-4,0.8-4,0.8c-2.5,3.3-11.2,12.1-20.5,21.4c0.6,0.6,1.3,1.3,2.2,2.1c10.5-10.3,19.8-19.5,19.8-19.5
		c-1.7,3.2-10.1,11.6-19,20.3c1.2,1.2,2.6,2.5,4.1,3.9c2.9-2.6,5.8-5.2,8.3-7.1c10.8-8.3,11.2-8.8,18.4-15.6
		c6.4-6,51.9-46.9,41.6-30.5c-7.6,12.1-40.2,46.7-56.9,64.1c2.1,2,4.2,4.1,6.4,6.2c17.5-13.8,42.8-39.4,42.8-39.4s-4.3,5.4-10.7,12
		c-4.9,5-20,19.8-30.6,29c1.9,1.8,3.8,3.6,5.7,5.5l9.3-8.9c3.9-3.8,6.8-6.5,6.8-6.5l-6.8,6.5c-2.8,2.7-6,6-9.1,9.1
		c1,0.9,1.9,1.8,2.9,2.8c8.1-8.9,24.3-23.7,24.3-23.7c-2.7,2.7-15.2,15.5-23.1,24.9c1,0.9,1.9,1.9,2.9,2.8c4.1-1.5,8.1-3.2,12-5.1
		c13.8-14.4,26.8-27.8,26.8-27.8C454.9,206.5,461.6,201.8,469.3,195z M451.5,154.2c0,0,23.9-8.9-54.8,64.6
		C396.7,218.7,433.7,182.6,451.5,154.2z"/>
	<path class="st0" d="M455.6,142.3c-14.8,8.8-26.2,15.1-35.2,23.4c-9,8.3-27.7,29-27.7,29c32.6-33.3,49.4-41.1,61.4-47.7
		c6.4-3.5,21.4-18.5,34.1-31.8c0-0.3-0.1-0.5-0.1-0.8C476.8,125.5,463.7,137.4,455.6,142.3z"/>
	<path class="st0" d="M407.7,187c5.4-5.7,35.5-33,31.1-22.4c-0.5,1.1-31.9,36.5-48.2,54.8c0.1,0.1,0.3,0.3,0.4,0.4
		c16.7-17.4,49.3-52,56.9-64.1c10.3-16.4-35.2,24.4-41.6,30.5c-7.2,6.8-7.6,7.3-18.4,15.6c-2.5,1.9-5.4,4.4-8.3,7.1
		c0.3,0.3,0.6,0.5,0.8,0.8C391.8,200.5,405,189.9,407.7,187z"/>
	<path class="st0" d="M396.7,218.7c78.7-73.5,54.8-64.6,54.8-64.6C433.7,182.6,396.7,218.7,396.7,218.7z"/>
	<path class="st0" d="M464.8,175.1c-6.9,6.5-26.6,30.1-26.6,30.1c11-13.1,22.1-23,27.9-27.7c4-3.2,10.1-7.1,18.4-15.3
		c0.7-2.3,1.2-4.6,1.7-6.9c-5.3,5.7-10.7,11.1-15.1,14.5c-7.6,5.8,6.1-10.3,16.5-21.4c0.2-1.5,0.4-3,0.6-4.5
		C466.5,166,464.8,175.1,464.8,175.1z"/>
	<path class="st0" d="M293.2,216.2c-1.8-1.7-3.6-3.5-5.4-5.3C289.5,212.8,291.3,214.5,293.2,216.2z"/>
	<path class="st0" d="M276.9,182.8c0,0-6.5-7.3-16.4-17.8c0.1,0.4,0.3,0.9,0.4,1.3C267.2,172.4,272.7,178.2,276.9,182.8z"/>
	<path class="st0" d="M260.2,133.5c-1.4-1.4-3.1-3.1-5.1-5.1c0,0,0,0.1,0,0.1C257,130.3,258.7,131.9,260.2,133.5z"/>
	<path class="st0" d="M293.3,177.5c14.3,12.3,12.4,13.8,13,15.1c0.6,1.4,5,1.2,7.2,2.1c2.2,0.9,5.7-1,33.2,26.5c0,0-9.6-17.3-36-30
		c0,0-45.4-41.6-54.9-54.2c0,0,2.5-5.5,63.5,55.8c0,0-35.1-41.1-64.1-60.6c0.1,2.6,0.2,5.2,0.4,7.7
		C268.6,153.5,285.3,170.6,293.3,177.5z"/>
	<path class="st0" d="M264,137.1c-1.1-1.1-2.4-2.3-3.7-3.7C262.6,135.8,264,137.1,264,137.1z"/>
	<path class="st0" d="M287.5,177.4c0,0-17.4-19.1-31.7-35.1c0.1,0.9,0.2,1.8,0.3,2.7C266.2,154.9,277,165.9,287.5,177.4z"/>
	<path class="st0" d="M378.8,235.9c0,0,3,3.2,7.1,7.5L378.8,235.9z"/>
	<path class="st0" d="M407.8,236c-1-0.9-1.9-1.8-2.9-2.8c-0.1-0.1-0.2-0.2-0.2-0.2c-1.9-1.8-3.8-3.7-5.7-5.5c-0.5-0.5-1-1-1.6-1.5
		c-2.2-2.1-4.4-4.2-6.4-6.2c-0.1-0.1-0.3-0.3-0.4-0.4c-1-1-2-1.9-3-2.9c-0.6-0.5-1.1-1.1-1.6-1.6c-2-1.9-3.8-3.7-5.5-5.3
		c-0.3-0.3-0.6-0.5-0.8-0.8c-1.5-1.5-2.9-2.8-4.1-3.9c-0.3-0.3-0.6-0.5-0.8-0.8c-0.8-0.8-1.6-1.5-2.2-2.1c-0.3-0.3-0.6-0.6-0.8-0.8
		c-0.3-1.2-0.9-2.5-1.5-3.8c-0.5-1.1-1.1-2.2-1.9-3.4c-2.7-4.4-7-9.7-12.1-15.4c-14.2-15.7-35.2-34.6-47.1-45.3
		c-1.5-1.4-2.9-2.6-4.1-3.7c-1.9-1.7-3.3-3-4.1-3.9c-1.2-1.2-3.3-3.3-6.1-6.1c-0.8-0.8-1.7-1.7-2.6-2.7c-0.8-0.8-1.6-1.6-2.5-2.5
		c-0.6-0.6-1.3-1.3-2-2c-1.7-1.7-3.5-3.5-5.4-5.4c-0.2-0.2-0.4-0.4-0.6-0.6c-1.3-1.2-2.5-2.5-3.8-3.8c-0.5-0.5-1.1-1.1-1.6-1.6
		c-2-1.9-3.9-3.9-5.9-5.8c-0.8-0.8-1.6-1.5-2.3-2.3c-1.7-1.7-3.4-3.3-5.1-5c-0.7,1.8-1.3,3.6-1.9,5.4c15.2,14.8,32.1,31.9,36.3,36.1
		c7.7,7.7,67.5,58.2,69.6,74.3c0,0,20.9,20.1,39.4,38c1.9-0.6,3.8-1.2,5.6-1.9c-0.9-0.9-1.9-1.8-2.9-2.8
		C408.6,236.8,408.2,236.4,407.8,236z"/>
	<path class="st0" d="M388.2,245.7C388.2,245.7,388.2,245.7,388.2,245.7c-0.7-0.8-1.5-1.6-2.2-2.3L388.2,245.7z"/>
	<path class="st0" d="M358.2,226.1c-7.2-7-13-11.7-13-11.7s16.4,16.2,30.9,32.3c0.7,0,1.5,0,2.2-0.1
		C370.1,238,361.8,229.6,358.2,226.1z"/>
	<path class="st0" d="M372.9,223.8c0,0,11,12,20.3,21.2c0.6-0.1,1.2-0.2,1.7-0.3C385.7,236.3,375.4,226.2,372.9,223.8z"/>
	<path class="st4" d="M321.6,215.6c-8.9-3.9,7.2,15.1,17.7,26.5c5.4,1.6,10.9,2.8,16.6,3.6C338.9,230.6,322.4,216,321.6,215.6z"/>
	<path class="st4" d="M297.3,197.2c-6.8-11.3-26-31.2-40-44.9c0.8,4.3,1.9,8.5,3.2,12.6c9.9,10.5,16.4,17.8,16.4,17.8
		c-4.2-4.6-9.7-10.3-16-16.5c5.5,16.9,14.8,32.2,26.9,44.7c1.8,1.8,3.6,3.6,5.4,5.3c9.1,8.3,19.5,15.2,30.9,20.4
		c-0.4-0.4-0.7-0.8-1.1-1.1C314,225.6,307,213.3,297.3,197.2z"/>
	<path class="st4" d="M366.8,203.8c-2.1-16.1-61.8-66.5-69.6-74.3c-4.2-4.2-21.1-21.3-36.3-36.1c-1,3.2-1.9,6.4-2.7,9.7
		c7,6.9,14.5,13.8,20.1,18.5c0,0-7-4.4-20.5-16.6c-0.6,2.8-1.1,5.7-1.5,8.6c7.3,7.7,31.1,33.2,39.1,41.7c9,9.5,39.2,36.2,31.1,25.8
		s-26.4-25.8-35.2-34.5c-8.8-8.6-28.9-28.7-32.6-35.5c0,0,21.5,23.8,42.8,40.7c21.3,16.9,28.2,28.3,33.4,34.7
		c5.2,6.4,16,18.4,30.3,30.5c0,0-25.7-21.6-32.8-29.1c0,0-18.9-3.9-69.4-64.8c0,0-3.3-4.3-6.9-7.3c-0.5,4.2-0.8,8.4-0.8,12.7
		c2,2,3.7,3.7,5.1,5.1c1.3,1.3,2.6,2.5,3.7,3.7c0,0-1.4-1.4-3.7-3.7c-1.6-1.5-3.3-3.2-5.1-4.9c0,0.5,0,0.9,0,1.4v0
		c0,0.8,0,1.6,0,2.4c29.1,19.5,64.1,60.6,64.1,60.6c-61-61.3-63.5-55.8-63.5-55.8c9.5,12.6,54.9,54.2,54.9,54.2
		c26.3,12.7,36,30,36,30c-27.5-27.5-31.1-25.5-33.2-26.5c-2.2-0.9-6.6-0.7-7.2-2.1c-0.6-1.4,1.3-2.8-13-15.1
		c-8-6.9-24.7-23.9-37.7-37.5c0.1,0.8,0.1,1.6,0.2,2.4c14.3,16,31.7,35.1,31.7,35.1c-10.5-11.6-21.3-22.6-31.4-32.4
		c0.3,2.3,0.7,4.5,1.1,6.8c15.8,14.8,40.3,38.4,45.2,47.1c5.2,9.2,11.1,21,27,39.9c2.4,0.9,4.8,1.8,7.3,2.6
		c-14.4-16.2-38.8-44.6-24.8-35.7c8.9,5.6,28.9,23.7,46.8,40.4c2,0.2,4.1,0.4,6.2,0.5c-14.3-13.5-36.1-33-54.7-44.8
		c0,0-8.8-22.6,56,44.9c2,0.1,4,0.2,6,0.2h0c1.3,0,2.6,0,3.9-0.1c-14.5-16.2-30.9-32.3-30.9-32.3s5.9,4.7,13,11.7
		c3.6,3.5,11.9,11.9,20,20.6c3.4-0.2,6.7-0.5,9.9-0.9l-2.2-2.3c-4.2-4.3-7.1-7.5-7.1-7.5l7.1,7.5c0.7,0.7,1.5,1.5,2.3,2.3
		c1.7-0.2,3.3-0.5,5-0.8c-9.3-9.2-20.3-21.2-20.3-21.2c2.5,2.5,12.8,12.6,22,20.8c3.8-0.8,7.6-1.7,11.3-2.8
		C387.7,223.9,366.8,203.8,366.8,203.8z"/>
	<path class="st0" d="M257.2,151.9c0,0.1,0.1,0.3,0.1,0.4c14,13.7,33.2,33.6,40,44.9c9.7,16.1,16.7,28.4,25.8,38.2
		c0.3,0.4,0.7,0.7,1.1,1.1c1.7,0.8,3.5,1.5,5.3,2.2c-16-18.8-21.8-30.6-27-39.9C297.5,190.3,273,166.6,257.2,151.9z"/>
	<path class="st0" d="M311.9,205.7c-14-8.9,10.4,19.6,24.8,35.7c0.9,0.3,1.7,0.5,2.6,0.8c-10.5-11.4-26.6-30.4-17.7-26.5
		c0.8,0.3,17.4,15,34.3,30.1c0.9,0.1,1.8,0.2,2.8,0.3C340.7,229.3,320.7,211.3,311.9,205.7z"/>
	<path class="st0" d="M310.1,201.8c18.6,11.8,40.4,31.3,54.7,44.8c0.4,0,0.8,0.1,1.2,0.1C301.3,179.2,310.1,201.8,310.1,201.8z"/>
	<path class="st0" d="M262.9,123.1c50.5,60.9,69.4,64.8,69.4,64.8c7.2,7.5,32.8,29.1,32.8,29.1c-14.3-12.1-25.1-24.1-30.3-30.5
		c-5.2-6.4-12.1-17.8-33.4-34.7c-21.3-16.9-42.8-40.7-42.8-40.7c3.8,6.8,23.8,26.8,32.6,35.5c8.8,8.6,27.1,24.1,35.2,34.5
		s-22.2-16.2-31.1-25.8c-8-8.5-31.7-34-39.1-41.7c-0.1,0.7-0.2,1.5-0.3,2.2C259.6,118.7,262.9,123.1,262.9,123.1z"/>
	<path class="st0" d="M278.3,121.6c-5.6-4.7-13.1-11.6-20.1-18.5c-0.1,0.6-0.3,1.3-0.4,1.9C271.3,117.2,278.3,121.6,278.3,121.6z"/>
</g>
<path class="st5" d="M486.6,129.9L486.6,129.9c0,63.2-51.3,114.5-114.5,114.5h0c-63.2,0-114.5-51.3-114.5-114.5v0
	c0-63.2,51.3-114.5,114.5-114.5h0C435.3,15.4,486.6,66.6,486.6,129.9z M491.5,129.9c0-66-53.5-119.4-119.4-119.4h0
	c-65.9,0-119.4,53.5-119.4,119.4v0c0,65.9,53.5,119.4,119.4,119.4h0C438.1,249.3,491.5,195.8,491.5,129.9L491.5,129.9z"/>
<path class="st5" d="M496.7,129.9L496.7,129.9c0,68.8-55.8,124.6-124.6,124.6h0c-68.8,0-124.6-55.8-124.6-124.6v0
	c0-68.8,55.8-124.6,124.6-124.6h0C440.9,5.3,496.7,61.1,496.7,129.9z M502,129.9C502,58.2,443.8,0,372.1,0h0
	c-71.7,0-129.9,58.2-129.9,129.9v0c0,71.7,58.2,129.9,129.9,129.9h0C443.8,259.8,502,201.6,502,129.9L502,129.9z"/>
</svg>
